<svg width="128" height="33" viewBox="0 0 128 33" fill="none" xmlns="http://www.w3.org/2000/svg">
<path d="M13.4551 32.3938C12.0326 32.3938 10.8279 32.0011 9.84094 31.2158C8.88297 30.4013 8.15724 29.1942 7.66374 27.5944L0 2.59424H4.52857L11.7569 26.4601C11.931 26.9836 12.1488 27.3763 12.41 27.6381C12.6713 27.8999 13.0196 28.0308 13.4551 28.0308C13.8905 28.0308 14.2389 27.8999 14.5001 27.6381C14.7904 27.3763 15.0082 26.9836 15.1533 26.4601L22.2945 2.59424H26.8666L19.2029 27.5944C18.7094 29.1942 17.9691 30.4013 16.9821 31.2158C16.0242 32.0011 14.8485 32.3938 13.4551 32.3938Z" fill="black"/>
<path d="M30.346 10.4477H34.6563V31.8266H30.346V10.4477ZM32.4794 6.21558C31.986 6.21558 31.5216 6.09923 31.0862 5.86654C30.6508 5.60476 30.3025 5.25571 30.0413 4.81941C29.78 4.38311 29.6494 3.90317 29.6494 3.37961C29.6494 2.85604 29.78 2.37611 30.0413 1.9398C30.3025 1.5035 30.6508 1.15446 31.0862 0.892674C31.5216 0.630891 31.986 0.5 32.4794 0.5C33.0019 0.5 33.4663 0.630891 33.8726 0.892674C34.308 1.15446 34.6418 1.5035 34.874 1.9398C35.1352 2.37611 35.2659 2.85604 35.2659 3.37961C35.2659 3.90317 35.1352 4.38311 34.874 4.81941C34.6418 5.25571 34.308 5.60476 33.8726 5.86654C33.4663 6.09923 33.0019 6.21558 32.4794 6.21558Z" fill="black"/>
<path d="M49.1847 14.0687C47.7913 14.0687 46.6301 14.4178 45.7012 15.1158C44.7722 15.8139 44.0755 16.7156 43.6111 17.8209C43.1466 18.9262 42.9144 20.1479 42.9144 21.4859V31.8263H38.6035V21.0496C38.6035 18.9553 39.0099 17.0792 39.8227 15.4213C40.6356 13.7342 41.8258 12.3962 43.3934 11.4073C44.9609 10.4183 46.8914 9.92383 49.1847 9.92383C51.5361 9.92383 53.4956 10.4183 55.0631 11.4073C56.6597 12.3962 57.8645 13.7342 58.6773 15.4213C59.5191 17.0792 59.9401 18.9408 59.9401 21.0059V31.8263H55.6292V21.5295C55.6292 20.1915 55.3825 18.9699 54.889 17.8646C54.4245 16.7302 53.7133 15.8139 52.7553 15.1158C51.8264 14.4178 50.6362 14.0687 49.1847 14.0687Z" fill="black"/>
<path d="M79.4829 30.9734C77.599 32.0078 75.6759 32.5165 73.7136 32.4994C71.7372 32.4569 69.9118 31.9335 68.2371 30.9293C66.5484 29.8996 65.181 28.4282 64.1347 26.5151C63.1581 24.7295 62.6599 22.8804 62.6399 20.9676C62.606 19.0293 63.0647 17.2351 64.016 15.585C64.9534 13.9095 66.364 12.5545 68.2478 11.5201C70.1317 10.4857 71.9784 10.019 73.788 10.1199C75.6092 10.1813 77.2795 10.7236 78.799 11.7467C80.33 12.7303 81.5698 14.0893 82.5184 15.8239L83.3555 17.3543L67.6609 25.9719L67.5112 24.064C68.1603 25.4324 69.0254 26.4997 70.1065 27.266C71.1876 28.0322 72.3863 28.4686 73.7024 28.5752C75.0046 28.6562 76.3049 28.3402 77.6032 27.6273C78.7743 26.9843 79.6912 26.1492 80.3542 25.1218C81.0425 24.0805 81.3877 22.8959 81.3898 21.568L85.108 21.4667C85.1723 23.5211 84.709 25.3675 83.7183 27.006C82.7276 28.6445 81.3158 29.967 79.4829 30.9734ZM67.2 23.0409L78.2358 16.9814C77.6408 16.0145 76.8922 15.2812 75.99 14.7816C75.1132 14.268 74.1559 14.0307 73.1181 14.0699C72.1057 14.0951 71.0903 14.3873 70.072 14.9464C69.0283 15.5195 68.2177 16.2465 67.6402 17.1275C67.0882 17.9944 66.7796 18.9433 66.7144 19.9742C66.6747 20.991 66.8365 22.0133 67.2 23.0409Z" fill="black"/>
<path d="M98.0804 32.3934C96.3386 32.3934 94.8581 32.0443 93.6389 31.3463C92.4196 30.6482 91.4907 29.6883 90.8521 28.4667C90.2424 27.2159 89.9376 25.7761 89.9376 24.1472V4.90625H94.2485V24.0164C94.2485 25.4125 94.6259 26.5033 95.3806 27.2886C96.1644 28.074 97.195 28.4667 98.4722 28.4667C99.169 28.4667 99.8657 28.3503 100.562 28.1176C101.288 27.8849 101.912 27.5795 102.435 27.2014V31.1717C101.883 31.5208 101.216 31.8117 100.432 32.0443C99.6479 32.277 98.8641 32.3934 98.0804 32.3934ZM102.435 14.1995H85.7139V10.4473H102.435V14.1995Z" fill="black"/>
<path d="M115.982 32.3498C113.921 32.3498 112.077 31.8408 110.452 30.8228C108.855 29.8047 107.592 28.4522 106.663 26.7652C105.734 25.049 105.27 23.1584 105.27 21.0932C105.27 19.0571 105.764 17.1956 106.751 15.5085C107.767 13.7924 109.131 12.4398 110.844 11.4509C112.556 10.4328 114.487 9.92383 116.635 9.92383C118.783 9.92383 120.714 10.4183 122.426 11.4073C124.139 12.3671 125.489 13.6906 126.476 15.3776C127.492 17.0647 128 18.9699 128 21.0932V31.8263H123.907V23.8419L125.387 22.7075C125.387 24.5109 124.981 26.1398 124.168 27.5941C123.384 29.0485 122.281 30.212 120.859 31.0846C119.465 31.9281 117.84 32.3498 115.982 32.3498ZM116.635 28.2486C117.97 28.2486 119.175 27.9286 120.249 27.2887C121.323 26.6488 122.165 25.7907 122.775 24.7145C123.384 23.6092 123.689 22.4167 123.689 21.1368C123.689 19.8279 123.384 18.6354 122.775 17.5591C122.165 16.4829 121.323 15.6249 120.249 14.985C119.175 14.316 117.97 13.9815 116.635 13.9815C115.3 13.9815 114.095 14.316 113.021 14.985C111.976 15.6249 111.134 16.4829 110.495 17.5591C109.886 18.6354 109.581 19.8279 109.581 21.1368C109.581 22.4167 109.886 23.6092 110.495 24.7145C111.134 25.7907 111.976 26.6488 113.021 27.2887C114.095 27.9286 115.3 28.2486 116.635 28.2486Z" fill="black"/>
</svg>
